<svg width="112" height="32" viewBox="0 0 112 32" fill="none" xmlns="http://www.w3.org/2000/svg">
<path fill-rule="evenodd" clip-rule="evenodd" d="M19.4864 6.68287C19.4864 6.62848 19.4792 6.57432 19.4651 6.52177C19.3758 6.18956 19.0329 5.99238 18.6993 6.08135L15.6784 6.88708C15.405 6.96 15.2148 7.20672 15.2148 7.4886V9.18427C15.2148 9.23867 15.222 9.29283 15.2361 9.34537C15.3255 9.67758 15.6683 9.87477 16.0019 9.78579L19.0228 8.98007C19.2963 8.90715 19.4864 8.66042 19.4864 8.37855V6.68287ZM59.6854 6.36753L59.6098 6.28005C59.4724 6.14709 59.2812 6.07978 59.0868 6.10074L56.1417 6.41843L56.0349 6.439C55.7592 6.51634 55.5617 6.76819 55.5617 7.06199V25.1041L55.5722 25.2205C55.6272 25.5225 55.8926 25.7514 56.2117 25.7514H59.1095L59.2263 25.741C59.5296 25.6862 59.7595 25.4218 59.7595 25.1035L59.736 12.818L68.2465 25.4645L68.3282 25.5632C68.4488 25.6826 68.6131 25.7514 68.7865 25.7514H70.9513L71.0681 25.741C71.3713 25.6862 71.6013 25.4219 71.6013 25.1041V7.06608L71.5922 6.95759C71.5442 6.67501 71.3118 6.45181 71.0168 6.42205L68.1456 6.1325L68.0283 6.13115C67.7211 6.15526 67.4656 6.39514 67.4334 6.7113L67.4301 6.77938L67.4763 17.2068L59.6854 6.36753ZM41.6377 10.4345L41.6786 10.5439L42.2235 12.5286C43.5326 11.4845 45.2123 10.5136 46.9907 10.5136C50.5688 10.5136 52.8395 12.6285 52.9629 16.47L52.9682 16.8035V25.108C52.9682 25.4258 52.7382 25.6901 52.435 25.7449L52.3181 25.7553H49.3697C49.0506 25.7553 48.7852 25.5263 48.7302 25.2244L48.7197 25.108V16.8035C48.7197 14.9637 47.707 14.1682 45.8051 14.1682C44.7446 14.1682 43.5981 14.8965 42.9077 15.6405L42.7669 15.7999V25.108C42.7669 25.4258 42.537 25.6901 42.2338 25.7449L42.1169 25.7553H39.1685C38.8494 25.7553 38.584 25.5263 38.5289 25.2244L38.5185 25.108V11.2267C38.5185 10.9713 38.6686 10.7436 38.8955 10.6392L38.9972 10.6022L40.8802 10.0901C41.1495 10.0169 41.4255 10.1236 41.5795 10.3368L41.6377 10.4345ZM88.7121 18.2865C88.7121 13.1372 86.4895 10.5136 81.2487 10.5136C76.0313 10.5136 73.7619 13.1372 73.7619 18.2865C73.7619 23.4357 76.0313 26.0104 81.2487 26.0104C86.4895 26.0104 88.7121 23.4357 88.7121 18.2865ZM28.3627 10.5783C29.673 10.5783 31.123 10.7374 32.3178 11.27C32.4188 11.315 32.6253 11.4285 32.821 11.6088C32.8585 11.6433 33.5385 11.4712 34.8611 11.0925C35.1647 11.0056 35.4805 11.1488 35.6194 11.4195L35.6628 11.5268L36.1272 13.0528C36.2102 13.3596 36.0572 13.6744 35.7788 13.8059L35.6687 13.8462L34.7114 14.1031C34.7933 14.6048 34.8342 14.9959 34.8342 15.2765C34.8342 18.0807 33.1052 19.901 28.3874 19.901C27.6217 19.901 26.856 19.8518 26.115 19.7288C25.7445 19.901 25.5469 20.147 25.5469 20.4421C25.5469 20.7804 25.8167 20.9946 26.4515 21.0848L26.6337 21.1063L30.8822 21.2785C34.9577 21.4507 36.3656 22.8528 36.3656 25.0912C36.3656 28.1413 34.1179 30.06 28.5109 30.06C23.5956 30.06 21.6443 28.2889 21.6443 26.0013C21.6443 25.0912 22.0642 24.2548 22.8546 23.6399C22.1877 23.1233 21.7184 22.3854 21.7184 21.4015C21.7184 20.3929 22.3112 19.409 23.7191 18.7695C22.5829 18.0807 21.8913 16.9738 21.8913 15.2765C21.8913 12.5953 23.6203 10.5783 28.3627 10.5783ZM25.868 24.4516C25.4234 24.7714 25.2258 25.1896 25.2258 25.5339C25.2258 26.4986 26.0394 26.9907 28.1205 27.0316L28.4121 27.0344C31.8208 27.059 32.6359 26.5179 32.6359 25.7061C32.6359 25.1247 32.2685 24.8076 30.6799 24.6808L30.1659 24.6484L25.868 24.4516ZM7.44678 10.5524C8.79894 10.5524 10.1511 10.748 11.3969 11.1038L11.7875 11.2249C12.0973 11.3313 12.2741 11.6342 12.2273 11.9376L12.1992 12.051L11.5288 13.9859C11.445 14.2276 11.2115 14.3789 10.9635 14.3663L10.8568 14.3507L10.5897 14.2877C9.42088 14.0277 8.18125 13.8978 7.27388 13.8978C5.86596 13.8978 5.07555 14.3405 5.07555 15.0539C5.07555 15.8883 6.28847 16.1692 7.76846 16.5121C10.0842 17.0485 13.0538 17.7363 13.0538 20.9328C13.0538 23.8354 11.2012 26 6.58227 26C4.80009 26 3.22177 25.7462 1.8755 25.2106L1.6104 25.0973C1.33845 24.9751 1.1893 24.6875 1.2361 24.403L1.26297 24.2969L1.94329 22.3272C2.03124 22.096 2.26926 21.9653 2.50509 22.0033L2.60558 22.0301L3.05305 22.186C4.26511 22.575 5.60973 22.7531 6.65637 22.7531C8.36069 22.7531 9.077 22.1381 9.077 21.351C9.077 20.4748 7.83958 20.179 6.33342 19.819C3.99156 19.2592 1 18.5441 1 15.2506C1 12.4465 3.07483 10.5524 7.44678 10.5524ZM19.4834 11.778C19.4834 11.7236 19.4763 11.6695 19.4622 11.617C19.3729 11.2848 19.0301 11.0875 18.6964 11.1765L15.6728 11.9824C15.3994 12.0553 15.2092 12.302 15.2092 12.5839V25.1376C15.2092 25.4815 15.4891 25.7603 15.8345 25.7603H18.8581C19.2035 25.7603 19.4834 25.4815 19.4834 25.1376V11.778ZM90.0629 10.5359L93.1897 11.354C93.4327 11.4175 93.6171 11.6148 93.6634 11.8607L95.3817 20.982L95.5613 22.2223L95.803 20.9737L97.6126 12.6246C97.6779 12.323 97.9479 12.1093 98.2577 12.1139L102.324 12.1747C102.628 12.1792 102.887 12.3922 102.95 12.6878L104.714 20.9797L104.905 22.1938L105.112 20.9764L106.89 12.0343C106.943 11.7659 107.16 11.5599 107.432 11.5197L110.255 11.1025C110.61 11.05 110.94 11.2941 110.993 11.6478C111.005 11.7307 111.001 11.8153 110.981 11.8967L107.698 25.2574C107.626 25.5471 107.366 25.7509 107.066 25.7509H102.891C102.587 25.7509 102.324 25.5414 102.257 25.2463L100.491 17.4707L100.302 16.1621L100.022 17.4834L98.0615 25.2612C97.9889 25.549 97.7291 25.7509 97.4311 25.7509H93.2708C92.9704 25.7509 92.7092 25.546 92.6388 25.2552L89.2658 11.3136C89.1817 10.966 89.3965 10.6164 89.7455 10.5327C89.85 10.5076 89.959 10.5087 90.0629 10.5359ZM77.9264 18.262C77.9264 14.9517 78.8389 13.8728 81.2487 13.8728C83.6351 13.8728 84.5008 14.9517 84.5008 18.262C84.5008 21.5722 83.6351 22.6756 81.2487 22.6756C78.8389 22.6756 77.9264 21.5967 77.9264 18.262ZM28.4121 13.6285C26.6831 13.6285 26.0903 14.1696 26.0903 15.3749C26.0903 16.7524 26.9795 17.0968 28.3133 17.0968C30.2153 17.0968 30.734 16.6048 30.734 15.3749C30.734 14.1204 30.0918 13.6285 28.4121 13.6285Z" fill="#0777CF"/>
</svg>
